<svg xmlns="http://www.w3.org/2000/svg" viewBox="0 0 300 360" width="100%" height="100%">
  <defs>
    <linearGradient id="bg3" x1="0%" y1="0%" x2="100%" y2="100%">
      <stop offset="0%" stop-color="#FFE5D9"/>
      <stop offset="100%" stop-color="#FCB5A2"/>
    </linearGradient>
    <filter id="card-shadow-3" x="-10%" y="-10%" width="120%" height="120%">
      <feDropShadow dx="0" dy="8" stdDeviation="8" flood-color="#8E5B74" flood-opacity="0.25"/>
    </filter>
  </defs>
  <g filter="url(#card-shadow-3)">
    <rect x="15" y="15" width="270" height="330" rx="16" fill="#FFFFFF"/>
    <rect x="30" y="30" width="240" height="230" rx="12" fill="url(#bg3)"/>
    <circle cx="150" cy="140" r="85" fill="#FFFDF9" opacity="0.6"/>
    <!-- Friend Avatar 3 (Pooja - Long Wavy Hair & Pizza Slice) -->
    <g transform="translate(0, 10)">
      <path d="M 95,210 Q 150,170 205,210 L 215,260 L 85,260 Z" fill="#E07A5F"/>
      <rect x="140" y="145" width="20" height="30" rx="6" fill="#FCD5CE"/>
      <ellipse cx="150" cy="125" rx="36" ry="42" fill="#FCD5CE"/>
      <!-- Long Wavy Hair -->
      <path d="M 112,120 C 105,75 140,70 160,75 C 185,72 195,90 188,140 C 184,165 190,195 186,220 L 172,220 C 176,190 172,160 174,130 C 172,100 162,90 150,90 C 138,90 128,100 126,130 C 128,160 124,190 128,220 L 114,220 C 110,195 116,165 112,120 Z" fill="#4A2810"/>
      <circle cx="136" cy="122" r="3.5" fill="#4A2E35"/>
      <circle cx="164" cy="122" r="3.5" fill="#4A2E35"/>
      <path d="M 140,138 Q 150,148 160,138" stroke="#D96B7E" stroke-width="3" stroke-linecap="round" fill="none"/>
      <circle cx="128" cy="130" r="5" fill="#F4978E" opacity="0.6"/>
      <circle cx="172" cy="130" r="5" fill="#F4978E" opacity="0.6"/>
    </g>
    <text x="150" y="292" font-family="sans-serif" font-weight="bold" font-size="20" text-anchor="middle" fill="#2A1E2D">Pooja</text>
    <text x="150" y="315" font-family="sans-serif" font-size="13" text-anchor="middle" fill="#E07A5F">🍕 2 AM Pizza Specialist</text>
  </g>
  <text x="35" y="55" font-size="16">🍕</text>
  <text x="240" y="55" font-size="16">⭐</text>
</svg>
